<?xml version="1.0" encoding="UTF-8"?>
<svg version="1.1" xmlns="http://www.w3.org/2000/svg" width="1024" height="862">
<path d="M0 0 C337.92 0 675.84 0 1024 0 C1024 284.46 1024 568.92 1024 862 C686.08 862 348.16 862 0 862 C0 577.54 0 293.08 0 0 Z " fill="#2A5278" transform="translate(0,0)"/>
<path d="M0 0 C0 232.32 0 464.64 0 704 C-282.15 704 -564.3 704 -855 704 C-851.44327029 700.44327029 -847.89976056 697.09877079 -844.0625 693.875 C-843.21933228 693.16331665 -843.21933228 693.16331665 -842.35913086 692.43725586 C-837.76014966 688.58113319 -833.04913405 684.881925 -828.30957031 681.20117188 C-823.43036732 677.3897169 -818.72757739 673.3968884 -814.04589844 669.34667969 C-808.78074213 664.79343184 -803.40707567 660.38367983 -798 656 C-789.38547236 648.96990634 -780.80265024 641.90154062 -772.22167969 634.83056641 C-768.6483795 631.88632412 -765.07415572 628.9432036 -761.5 626 C-760.08332863 624.83333904 -758.66666197 623.66667237 -757.25 622.5 C-652.0625 535.875 -652.0625 535.875 -357.75 293.5 C-357.0482666 292.92209717 -356.3465332 292.34419434 -355.62353516 291.7487793 C-354.21177011 290.5861588 -352.79998636 289.42356102 -351.38818359 288.26098633 C-347.77136578 285.28260241 -344.15490818 282.30378282 -340.5390625 279.32421875 C-333.67318949 273.6671262 -326.80261815 268.01618794 -319.9140625 262.38671875 C-314.00588333 257.5477141 -308.11539756 252.68716472 -302.22167969 247.83056641 C-298.6483795 244.88632412 -295.07415572 241.9432036 -291.5 239 C-290.08332863 237.83333904 -288.66666197 236.66667237 -287.25 235.5 C-217.125 177.75 -147 120 -40.75 32.5 C-40.04818604 31.9220166 -39.34637207 31.3440332 -38.62329102 30.74853516 C-37.21239619 29.58665994 -35.80142663 28.42487548 -34.39038086 27.26318359 C-30.75977402 24.27396299 -27.13064061 21.28298072 -23.50390625 18.2890625 C-1.3423777 0 -1.3423777 0 0 0 Z " fill="#FEFEFE" transform="translate(939,76)"/>
</svg>
