<svg width="102" height="101" viewBox="0 0 102 101" fill="none" xmlns="http://www.w3.org/2000/svg">
<path fill-rule="evenodd" clip-rule="evenodd" d="M58 101C57.6659 99.8996 57.2535 98.8351 56.7638 97.8136C56.4485 97.1541 56.1016 96.5127 55.7268 95.8911C55.3511 95.2696 54.9466 94.667 54.5144 94.0864C53.0046 92.0542 51.1626 90.2864 49.0689 88.8628C48.1727 88.2543 47.2289 87.7076 46.2465 87.2307C44.2806 86.277 42.1562 85.6036 39.9236 85.2614C39.5509 85.2035 39.1762 85.1556 38.7985 85.1167C38.043 85.0399 37.2757 85 36.4995 85C35.7233 85 34.957 85.0399 34.2015 85.1167C33.8228 85.1556 33.4481 85.2035 33.0764 85.2614C32.3319 85.3751 31.6002 85.5258 30.8815 85.7123C30.5226 85.8041 30.1667 85.9068 29.8148 86.0166C29.1109 86.2371 28.4219 86.4915 27.7488 86.7778C26.0685 87.4931 24.4912 88.4079 23.0488 89.4943C22.1834 90.1448 21.3665 90.8581 20.6031 91.6253C18.0355 94.2091 16.0885 97.4155 15 101H58Z" fill="#F28011"/>
<path fill-rule="evenodd" clip-rule="evenodd" d="M19 63.5806C19.5005 64.2372 20.0613 64.842 20.6862 65.3717C22.0683 66.5438 23.7288 67.383 25.5502 67.7666C26.2787 67.9188 27.034 68 27.806 68C28.965 68 30.0835 67.8194 31.1349 67.4825C32.5367 67.0339 33.8211 66.3104 34.9268 65.3717C37.4145 63.261 39 60.0664 39 56.4924C39 52.9183 37.4145 49.7248 34.9268 47.6151C33.8211 46.6764 32.5367 45.9529 31.1349 45.5054C30.1545 45.1908 29.114 45.0223 28.038 45L19 63.5806Z" fill="#43388A"/>
<path fill-rule="evenodd" clip-rule="evenodd" d="M87.4226 71.6204L69.968 37C62.7293 42.0857 58 50.4513 58 59.9165C58 75.4234 70.6783 88 86.3177 88C89.2507 88 92.0789 87.5572 94.7393 86.737C94.8272 86.7102 94.9121 86.6775 95 86.6498L87.4226 71.6204Z" fill="#F28011"/>
<path fill-rule="evenodd" clip-rule="evenodd" d="M36.6056 81.564C48.7157 81.564 58.9241 89.8283 61.8737 101H102L96.1619 89.3454C92.9448 90.4402 89.5022 91.044 85.9184 91.044C68.3791 91.044 54.1099 76.803 54.1099 59.2985C54.1099 48.4318 59.6144 38.8267 67.9843 33.1029L62.8706 22.897C60.7515 23.6408 58.4832 24.0668 56.1107 24.0668C50.4329 24.0668 45.2921 21.7412 41.5831 18L29.7686 41.5812C37.0264 42.507 42.6591 48.6947 42.6591 56.1842C42.6591 64.3115 36.0335 70.9232 27.89 70.9232C23.7432 70.9232 19.997 69.2015 17.3109 66.4461L0 101H11.3376C14.2872 89.8283 24.4966 81.564 36.6056 81.564Z" fill="#43388A"/>
<path fill-rule="evenodd" clip-rule="evenodd" d="M45.0462 17.2007C45.4113 17.4971 45.7903 17.7788 46.1802 18.0449C48.9128 19.9083 52.2303 21 55.8074 21C57.5602 21 59.2502 20.7378 60.8389 20.2517C60.8946 20.235 60.9453 20.2116 61 20.194L50.7342 0L43 15.213C43.6267 15.928 44.3051 16.5991 45.0462 17.2007Z" fill="#43388A"/>
</svg>
