<svg width="324" height="101" viewBox="0 0 324 101" fill="none" xmlns="http://www.w3.org/2000/svg">
<path fill-rule="evenodd" clip-rule="evenodd" d="M58 101C57.6659 99.8996 57.2535 98.8351 56.7638 97.8136C56.4485 97.1541 56.1016 96.5127 55.7268 95.8911C55.3511 95.2696 54.9466 94.667 54.5144 94.0864C53.0046 92.0542 51.1626 90.2864 49.0689 88.8628C48.1727 88.2543 47.2289 87.7076 46.2465 87.2307C44.2806 86.277 42.1562 85.6036 39.9236 85.2614C39.5509 85.2035 39.1762 85.1556 38.7985 85.1167C38.043 85.0399 37.2757 85 36.4995 85C35.7233 85 34.957 85.0399 34.2015 85.1167C33.8228 85.1556 33.4481 85.2035 33.0764 85.2614C32.3319 85.3751 31.6002 85.5258 30.8815 85.7123C30.5226 85.8041 30.1667 85.9068 29.8148 86.0166C29.1109 86.2371 28.4219 86.4915 27.7488 86.7778C26.0685 87.4931 24.4912 88.4079 23.0488 89.4943C22.1834 90.1448 21.3665 90.8581 20.6031 91.6253C18.0355 94.2091 16.0885 97.4155 15 101H58Z" fill="#F28011"/>
<path fill-rule="evenodd" clip-rule="evenodd" d="M19 63.5806C19.5005 64.2372 20.0613 64.842 20.6862 65.3717C22.0683 66.5438 23.7288 67.383 25.5502 67.7666C26.2787 67.9188 27.034 68 27.806 68C28.965 68 30.0835 67.8194 31.1349 67.4825C32.5367 67.0339 33.8211 66.3104 34.9268 65.3717C37.4145 63.261 39 60.0664 39 56.4924C39 52.9183 37.4145 49.7248 34.9268 47.6151C33.8211 46.6764 32.5367 45.9529 31.1349 45.5054C30.1545 45.1908 29.114 45.0223 28.038 45L19 63.5806Z" fill="#43388A"/>
<path fill-rule="evenodd" clip-rule="evenodd" d="M87.4226 71.6204L69.968 37C62.7293 42.0857 58 50.4513 58 59.9165C58 75.4234 70.6783 88 86.3177 88C89.2507 88 92.0789 87.5572 94.7393 86.737C94.8272 86.7102 94.9121 86.6775 95 86.6498L87.4226 71.6204Z" fill="#F28011"/>
<path fill-rule="evenodd" clip-rule="evenodd" d="M36.6056 81.564C48.7157 81.564 58.9241 89.8283 61.8737 101H102L96.1619 89.3454C92.9448 90.4402 89.5022 91.044 85.9184 91.044C68.3791 91.044 54.1099 76.803 54.1099 59.2985C54.1099 48.4318 59.6144 38.8267 67.9843 33.1029L62.8706 22.897C60.7515 23.6408 58.4832 24.0668 56.1107 24.0668C50.4329 24.0668 45.2921 21.7412 41.5831 18L29.7686 41.5812C37.0264 42.507 42.6591 48.6947 42.6591 56.1842C42.6591 64.3115 36.0335 70.9232 27.89 70.9232C23.7432 70.9232 19.997 69.2015 17.3109 66.4461L0 101H11.3376C14.2872 89.8283 24.4966 81.564 36.6056 81.564Z" fill="#43388A"/>
<path fill-rule="evenodd" clip-rule="evenodd" d="M45.0462 17.2007C45.4113 17.4971 45.7903 17.7788 46.1802 18.0449C48.9128 19.9083 52.2303 21 55.8074 21C57.5602 21 59.2502 20.7378 60.8389 20.2517C60.8946 20.235 60.9453 20.2116 61 20.194L50.7342 0L43 15.213C43.6267 15.928 44.3051 16.5991 45.0462 17.2007Z" fill="#43388A"/>
<path fill-rule="evenodd" clip-rule="evenodd" d="M256.348 58.3078C254.724 58.3078 253.662 59.4301 253.662 60.8936C253.662 62.3222 254.69 63.4794 256.282 63.4794C257.972 63.4794 258.999 62.3222 258.999 60.8936C258.966 59.4301 257.972 58.3078 256.348 58.3078ZM253.795 82.1622H258.833V65.5222H253.795V82.1622ZM220.01 58.3063C218.386 58.3063 217.327 59.4286 217.327 60.8921C217.327 62.3222 218.353 63.4779 219.943 63.4779C221.635 63.4779 222.662 62.3222 222.662 60.8921C222.628 59.4286 221.635 58.3063 220.01 58.3063ZM240.897 78.5543C240.035 78.5543 239.437 78.5542 238.941 78.486V72.0208H240.664C243.184 72.0208 245.205 72.9398 245.205 75.2193C245.205 77.6352 243.184 78.5543 240.897 78.5543ZM238.941 62.9698C239.339 62.9015 239.968 62.8333 241.094 62.8333C243.382 62.8333 244.675 63.7523 244.675 65.4873C244.675 67.1889 243.282 68.3112 240.598 68.3112H238.941V62.9698ZM246.066 69.8096V69.7413C248.586 68.7541 249.745 66.8826 249.745 64.8747C249.745 62.7651 248.653 61.1999 247.094 60.3491C245.437 59.3619 243.548 59.0555 240.465 59.0555C237.913 59.0555 235.261 59.2951 233.936 59.5332V82.0591C235.063 82.229 236.919 82.4003 239.404 82.4003C243.847 82.4003 246.563 81.6511 248.186 80.3241C249.579 79.1669 250.509 77.5336 250.509 75.424C250.509 72.497 248.618 70.4891 246.066 69.8096ZM298.022 71.9526C298.154 70.5921 299.015 68.5842 301.137 68.5842C303.458 68.5842 303.987 70.6938 303.987 71.9526H298.022ZM301.436 65.1476C295.801 65.1476 293.25 69.8096 293.25 74.0287C293.25 79.2352 296.399 82.5019 301.899 82.5019C304.087 82.5019 306.109 82.1622 307.767 81.4464L307.103 77.9416C305.744 78.4178 304.351 78.6559 302.629 78.6559C300.275 78.6559 298.188 77.6352 298.056 75.4922H308.496C308.561 75.1176 308.662 74.3351 308.662 73.4509C308.662 69.3334 306.673 65.1476 301.436 65.1476ZM320.367 78.4526C317.915 78.4526 315.926 76.8193 315.926 73.7906C315.893 71.0684 317.616 69.1287 320.267 69.1287C321.594 69.1287 322.489 69.3668 323.085 69.6397L323.88 65.7937C322.819 65.3857 321.361 65.1476 320.037 65.1476C314.004 65.1476 310.755 69.1286 310.755 73.9953C310.755 79.2003 314.102 82.5019 319.339 82.5019C321.262 82.5019 322.952 82.1622 323.847 81.7194L323.251 77.9082C322.489 78.2479 321.559 78.4526 320.367 78.4526ZM217.458 82.1607H222.496V65.5207H217.458V82.1607ZM270.469 78.8272C268.316 78.8272 267.155 76.6828 267.155 73.824C267.155 71.3747 268.083 68.8223 270.469 68.8223C272.757 68.8223 273.683 71.3399 273.683 73.7906C273.683 76.8193 272.458 78.8272 270.469 78.8272ZM270.635 65.1128C265.397 65.1128 261.952 68.5508 261.952 73.9605C261.952 79.3368 265.597 82.5353 270.336 82.5353C274.679 82.5353 278.888 79.7462 278.888 73.6542C278.888 68.6176 275.574 65.1128 270.635 65.1128ZM287.644 61.0301L282.705 62.4253V65.5222H280.552V69.3334H282.705V76.1383C282.705 78.486 283.17 80.086 284.098 81.0733C284.926 81.9241 286.286 82.5019 287.909 82.5019C289.302 82.5019 290.528 82.2972 291.158 82.0591L291.124 78.1463C290.66 78.2479 290.33 78.2828 289.633 78.2828C288.142 78.2828 287.644 77.3637 287.644 75.3558V69.3334H291.256V65.5222H287.644V61.0301ZM142.629 82.1607H147.667V58H142.629V82.1607ZM157.38 61.0286L152.443 62.4239V65.5207H150.288V69.3319H152.443V76.1369C152.443 78.4846 152.906 80.0845 153.834 81.0718C154.663 81.9226 156.022 82.5005 157.646 82.5005C159.037 82.5005 160.264 82.2958 160.893 82.0576L160.862 78.1448C160.397 78.2465 160.065 78.2813 159.369 78.2813C157.878 78.2813 157.38 77.3623 157.38 75.3543V69.3319H160.994V65.5207H157.38V61.0286ZM207.94 73.6876C207.709 74.6734 207.443 75.8988 207.244 76.8178H207.111C206.912 75.9336 206.58 74.6734 206.316 73.7209L203.895 65.5207H198.294L204.261 80.7655C204.427 81.1734 204.46 81.4115 204.46 81.6163C204.46 81.8195 204.36 82.0925 204.194 82.364C203.731 83.1814 202.869 84.0322 202.107 84.4402C201.344 84.883 200.549 85.1893 199.919 85.3244L201.013 89.68C202.272 89.545 204.128 88.9657 205.851 87.4006C207.674 85.7338 209.233 83.1131 211.553 76.4781L215.33 65.5207H209.962L207.94 73.6876ZM133.545 82.1607H138.583V65.5207H133.545V82.1607ZM121.836 59.2254L119.483 66.8478C118.721 69.4002 117.959 72.4273 117.362 75.0828H117.23C116.732 72.3939 116.07 69.5352 115.34 66.8811L113.152 59.2254H106.425L105 82.1607H109.672L110.103 73.4494C110.236 70.5907 110.369 67.051 110.469 63.9556H110.535C111.098 66.9494 111.827 70.2161 112.556 72.9384L114.943 81.7861H118.887L121.605 72.8368C122.466 70.1479 123.394 66.8811 124.123 63.9556H124.19C124.19 67.2891 124.289 70.6241 124.389 73.3812L124.753 82.1607H129.658L128.466 59.2254H121.836ZM167.626 71.9511C167.758 70.5907 168.619 68.5827 170.741 68.5827C173.062 68.5827 173.591 70.6923 173.591 71.9511H167.626ZM171.04 65.1461C165.404 65.1461 162.853 69.8081 162.853 74.0273C162.853 79.2337 166.003 82.5005 171.503 82.5005C173.691 82.5005 175.713 82.1607 177.371 81.4449L176.707 77.9401C175.348 78.4163 173.956 78.6559 172.233 78.6559C169.879 78.6559 167.792 77.6338 167.659 75.4908H178.099C178.165 75.1162 178.266 74.3336 178.266 73.4494C178.266 69.3319 176.277 65.1461 171.04 65.1461ZM190.866 65.1461C188.147 65.1461 186.523 66.7447 185.86 67.8336H185.761L185.53 65.5207H181.155C181.22 67.0176 181.287 68.7526 181.287 70.8288V82.1607H186.325V72.5638C186.325 72.0876 186.358 71.6114 186.491 71.2716C186.855 70.3177 187.683 69.3319 189.076 69.3319C190.899 69.3319 191.628 70.794 191.628 72.9384V82.1607H196.665V72.3257C196.665 67.4256 194.179 65.1461 190.866 65.1461ZM136.097 58.3063C134.473 58.3063 133.412 59.4286 133.412 60.8921C133.412 62.3222 134.44 63.4779 136.03 63.4779C137.722 63.4779 138.749 62.3222 138.749 60.8921C138.715 59.4286 137.722 58.3063 136.097 58.3063Z" fill="#43388A"/>
</svg>
